<svg xmlns="http://www.w3.org/2000/svg" version="1.1" xmlns:xlink="http://www.w3.org/1999/xlink" xmlns:svgjs="http://svgjs.dev/svgjs" width="1500" height="1500" viewBox="0 0 1500 1500"><rect width="1500" height="1500" fill="#000000"></rect><g transform="matrix(0.6666666666666666,0,0,0.6666666666666666,249.39393939393938,400.60426243792654)"><svg viewBox="0 0 396 277" data-background-color="#191552" preserveAspectRatio="xMidYMid meet" height="1049" width="1500" xmlns="http://www.w3.org/2000/svg" xmlns:xlink="http://www.w3.org/1999/xlink"><g id="tight-bounds" transform="matrix(1,0,0,1,0.2400000000000091,-0.107312719693482)"><svg viewBox="0 0 395.52 277.21462543938696" height="277.21462543938696" width="395.52"><g><svg viewBox="0 0 395.52 277.21462543938696" height="277.21462543938696" width="395.52"><g transform="matrix(1,0,0,1,0,141.32183074354162)"><svg viewBox="0 0 395.52 135.89279469584537" height="135.89279469584537" width="395.52"><g id="textblocktransform"><svg viewBox="0 0 395.52 135.89279469584537" height="135.89279469584537" width="395.52" id="textblock"><g><svg viewBox="0 0 395.52 87.09769704775805" height="87.09769704775805" width="395.52"><g transform="matrix(1,0,0,1,0,0)"><svg width="395.52" viewBox="2.4623146368139697 -18.889396629956398 209.81581536318606 46.2036566299564" height="87.09769704775805" data-palette-color="url(#b85d114a-28e9-41d4-8b08-378e18d685e4)"></svg></g></svg></g><g transform="matrix(1,0,0,1,118.31980799999998,114.24287728623932)"><svg viewBox="0 0 158.88038400000002 21.649917409606047" height="21.649917409606047" width="158.88038400000002"><g transform="matrix(1,0,0,1,0,0)"><svg width="158.88038400000002" viewBox="3 -39.65 370.56 50.5" height="21.649917409606047" data-palette-color="#6ee2f5"><path d="M24.6-34.55L24.6 0 16.5 0 7.75-28.3Q8.15-24.7 8.38-21.68 8.6-18.65 8.6-14.5L8.6-14.5 8.6 0 3 0 3-34.55 11.05-34.55 19.8-6.25Q19.5-8.05 19.23-11.35 18.95-14.65 18.95-18.05L18.95-18.05 18.95-34.55 24.6-34.55ZM49.3-13.85Q49.3-13.4 49.15-11.3L49.15-11.3 35.5-11.3Q35.7-7.2 36.92-5.58 38.15-3.95 40.4-3.95L40.4-3.95Q41.95-3.95 43.2-4.48 44.45-5 45.9-6.15L45.9-6.15 48.45-2.65Q44.95 0.75 40.05 0.75L40.05 0.75Q34.85 0.75 32.07-2.85 29.3-6.45 29.3-13L29.3-13Q29.3-19.55 31.95-23.35 34.6-27.15 39.45-27.15L39.45-27.15Q44.1-27.15 46.7-23.78 49.3-20.4 49.3-13.85L49.3-13.85ZM43.3-15.3L43.3-15.65Q43.3-19.4 42.4-21.13 41.5-22.85 39.5-22.85L39.5-22.85Q37.65-22.85 36.67-21.18 35.7-19.5 35.5-15.3L35.5-15.3 43.3-15.3ZM66-26.45L72.05-26.45 65.15 0 57.9 0 50.8-26.45 57.15-26.45 61.5-4.95 66-26.45ZM93.79-13.85Q93.79-13.4 93.64-11.3L93.64-11.3 79.99-11.3Q80.19-7.2 81.42-5.58 82.64-3.95 84.89-3.95L84.89-3.95Q86.44-3.95 87.69-4.48 88.94-5 90.39-6.15L90.39-6.15 92.94-2.65Q89.44 0.75 84.54 0.75L84.54 0.75Q79.34 0.75 76.57-2.85 73.79-6.45 73.79-13L73.79-13Q73.79-19.55 76.44-23.35 79.09-27.15 83.94-27.15L83.94-27.15Q88.59-27.15 91.19-23.78 93.79-20.4 93.79-13.85L93.79-13.85ZM87.79-15.3L87.79-15.65Q87.79-19.4 86.89-21.13 85.99-22.85 83.99-22.85L83.99-22.85Q82.14-22.85 81.17-21.18 80.19-19.5 79.99-15.3L79.99-15.3 87.79-15.3ZM109.74-27.1Q110.89-27.1 111.79-26.75L111.79-26.75 110.79-20.85Q109.79-21.1 108.94-21.1L108.94-21.1Q107.04-21.1 105.94-19.45 104.84-17.8 104.24-14.55L104.24-14.55 104.24 0 98.09 0 98.09-26.45 103.44-26.45 103.89-21.85Q105.74-27.1 109.74-27.1L109.74-27.1ZM131.84-27.15Q136.54-27.15 139.79-24.05L139.79-24.05 137.44-20.7Q136.04-21.7 134.79-22.2 133.54-22.7 132.24-22.7L132.24-22.7Q130.79-22.7 129.96-21.93 129.14-21.15 129.14-19.8L129.14-19.8Q129.14-18.45 130.06-17.63 130.99-16.8 133.79-15.7L133.79-15.7Q137.24-14.35 138.89-12.5 140.54-10.65 140.54-7.55L140.54-7.55Q140.54-3.7 137.84-1.48 135.14 0.75 130.99 0.75L130.99 0.75Q128.29 0.75 126.01-0.23 123.74-1.2 122.04-2.95L122.04-2.95 125.04-6.25Q127.84-3.8 130.74-3.8L130.74-3.8Q132.39-3.8 133.34-4.67 134.29-5.55 134.29-7.1L134.29-7.1Q134.29-8.25 133.89-8.97 133.49-9.7 132.49-10.33 131.49-10.95 129.49-11.7L129.49-11.7Q126.04-13.05 124.56-14.85 123.09-16.65 123.09-19.45L123.09-19.45Q123.09-22.8 125.46-24.98 127.84-27.15 131.84-27.15L131.84-27.15ZM155.53-5L157.68-1.2Q155.23 0.75 151.93 0.75L151.93 0.75Q148.48 0.75 146.68-1.23 144.88-3.2 144.88-6.6L144.88-6.6 144.88-22 141.78-22 141.78-26.45 144.88-26.45 144.88-32.3 151.03-33.05 151.03-26.45 156.03-26.45 155.43-22 151.03-22 151.03-6.6Q151.03-4.2 153.08-4.2L153.08-4.2Q153.73-4.2 154.23-4.38 154.73-4.55 155.53-5L155.53-5ZM169.63-27.15Q174.63-27.15 177.41-23.65 180.18-20.15 180.18-13.25L180.18-13.25Q180.18-6.65 177.38-2.95 174.58 0.75 169.63 0.75L169.63 0.75Q164.68 0.75 161.88-2.88 159.08-6.5 159.08-13.25L159.08-13.25Q159.08-19.95 161.88-23.55 164.68-27.15 169.63-27.15L169.63-27.15ZM169.63-22.5Q167.48-22.5 166.48-20.38 165.48-18.25 165.48-13.25L165.48-13.25Q165.48-8.2 166.48-6.08 167.48-3.95 169.63-3.95L169.63-3.95Q171.78-3.95 172.78-6.08 173.78-8.2 173.78-13.25L173.78-13.25Q173.78-18.3 172.78-20.4 171.78-22.5 169.63-22.5L169.63-22.5ZM196.93-27.15Q200.83-27.15 202.83-23.58 204.83-20 204.83-13.3L204.83-13.3Q204.83-6.8 202.55-3.03 200.28 0.75 196.23 0.75L196.23 0.75Q193.03 0.75 190.88-2.1L190.88-2.1 190.88 10.15 184.73 10.85 184.73-26.45 190.18-26.45 190.43-23.25Q191.73-25.25 193.33-26.2 194.93-27.15 196.93-27.15L196.93-27.15ZM194.58-3.95Q196.48-3.95 197.48-6.13 198.48-8.3 198.48-13.25L198.48-13.25Q198.48-18.45 197.63-20.5 196.78-22.55 194.98-22.55L194.98-22.55Q192.68-22.55 190.88-19.25L190.88-19.25 190.88-6.45Q192.48-3.95 194.58-3.95L194.58-3.95ZM224.87 0.75Q222.17 0.75 220.6-0.93 219.02-2.6 219.02-5.4L219.02-5.4 219.02-37.05 225.17-37.7 225.17-5.65Q225.17-5 225.47-4.6 225.77-4.2 226.37-4.2L226.37-4.2Q226.72-4.2 227.05-4.3 227.37-4.4 227.47-4.4L227.47-4.4 228.67-0.2Q226.97 0.75 224.87 0.75L224.87 0.75ZM250.57-13.85Q250.57-13.4 250.42-11.3L250.42-11.3 236.77-11.3Q236.97-7.2 238.2-5.58 239.42-3.95 241.67-3.95L241.67-3.95Q243.22-3.95 244.47-4.48 245.72-5 247.17-6.15L247.17-6.15 249.72-2.65Q246.22 0.75 241.32 0.75L241.32 0.75Q236.12 0.75 233.35-2.85 230.57-6.45 230.57-13L230.57-13Q230.57-19.55 233.22-23.35 235.87-27.15 240.72-27.15L240.72-27.15Q245.37-27.15 247.97-23.78 250.57-20.4 250.57-13.85L250.57-13.85ZM244.57-15.3L244.57-15.65Q244.57-19.4 243.67-21.13 242.77-22.85 240.77-22.85L240.77-22.85Q238.92-22.85 237.95-21.18 236.97-19.5 236.77-15.3L236.77-15.3 244.57-15.3ZM271.77-6.4Q271.77-5.1 272.12-4.48 272.47-3.85 273.27-3.45L273.27-3.45 272.02 0.65Q269.97 0.4 268.74-0.45 267.52-1.3 266.92-3.05L266.92-3.05Q264.62 0.75 260.47 0.75L260.47 0.75Q257.17 0.75 255.22-1.48 253.27-3.7 253.27-7.4L253.27-7.4Q253.27-11.7 255.94-13.95 258.62-16.2 263.72-16.2L263.72-16.2 265.77-16.2 265.77-18.05Q265.77-20.55 264.89-21.58 264.02-22.6 262.07-22.6L262.07-22.6Q259.72-22.6 256.22-21.3L256.22-21.3 254.82-25.3Q256.82-26.2 258.97-26.68 261.12-27.15 263.07-27.15L263.07-27.15Q271.77-27.15 271.77-18.35L271.77-18.35 271.77-6.4ZM262.12-3.7Q264.52-3.7 265.77-7L265.77-7 265.77-12.55 264.32-12.55Q261.77-12.55 260.59-11.4 259.42-10.25 259.42-7.85L259.42-7.85Q259.42-5.8 260.12-4.75 260.82-3.7 262.12-3.7L262.12-3.7ZM289.22-27.1Q290.37-27.1 291.27-26.75L291.27-26.75 290.27-20.85Q289.27-21.1 288.42-21.1L288.42-21.1Q286.52-21.1 285.42-19.45 284.32-17.8 283.72-14.55L283.72-14.55 283.72 0 277.57 0 277.57-26.45 282.92-26.45 283.37-21.85Q285.22-27.1 289.22-27.1L289.22-27.1ZM306.46-27.15Q309.31-27.15 310.96-25.1 312.61-23.05 312.61-19.6L312.61-19.6 312.61 0 306.46 0 306.46-18.9Q306.46-20.8 305.94-21.63 305.41-22.45 304.41-22.45L304.41-22.45Q302.31-22.45 300.26-18.5L300.26-18.5 300.26 0 294.11 0 294.11-26.45 299.46-26.45 299.91-23Q301.26-25.1 302.79-26.13 304.31-27.15 306.46-27.15L306.46-27.15ZM318.16-26.45L324.31-26.45 324.31 0 318.16 0 318.16-26.45ZM321.21-39.65Q322.86-39.65 323.89-38.6 324.91-37.55 324.91-35.9L324.91-35.9Q324.91-34.3 323.89-33.25 322.86-32.2 321.21-32.2L321.21-32.2Q319.56-32.2 318.54-33.25 317.51-34.3 317.51-35.9L317.51-35.9Q317.51-37.55 318.54-38.6 319.56-39.65 321.21-39.65L321.21-39.65ZM342.36-27.15Q345.21-27.15 346.86-25.1 348.51-23.05 348.51-19.6L348.51-19.6 348.51 0 342.36 0 342.36-18.9Q342.36-20.8 341.83-21.63 341.31-22.45 340.31-22.45L340.31-22.45Q338.21-22.45 336.16-18.5L336.16-18.5 336.16 0 330.01 0 330.01-26.45 335.36-26.45 335.81-23Q337.16-25.1 338.68-26.13 340.21-27.15 342.36-27.15L342.36-27.15ZM372.01-29.85L373.56-25.1Q372.51-24.6 371.03-24.4 369.56-24.2 367.36-24.2L367.36-24.2Q369.46-23.2 370.48-21.53 371.51-19.85 371.51-17.4L371.51-17.4Q371.51-13.4 369.06-10.95 366.61-8.5 362.41-8.5L362.41-8.5Q361.16-8.5 359.86-8.9L359.86-8.9Q358.96-8.15 358.96-6.85L358.96-6.85Q358.96-5.85 359.51-5.35 360.06-4.85 361.56-4.85L361.56-4.85 364.36-4.85Q368.36-4.85 370.71-2.78 373.06-0.7 373.06 2.5L373.06 2.5Q373.06 6.3 370.13 8.58 367.21 10.85 361.81 10.85L361.81 10.85Q356.11 10.85 353.83 8.75 351.56 6.65 351.56 2.6L351.56 2.6 357.01 2.6Q357.01 4.75 358.01 5.65 359.01 6.55 361.86 6.55L361.86 6.55Q364.61 6.55 365.76 5.6 366.91 4.65 366.91 2.9L366.91 2.9Q366.91 1.2 365.96 0.4 365.01-0.4 363.01-0.4L363.01-0.4 361.11-0.4Q357.31-0.4 355.56-1.75 353.81-3.1 353.81-5.45L353.81-5.45Q353.81-6.8 354.53-8.03 355.26-9.25 356.51-10.2L356.51-10.2Q354.46-11.5 353.51-13.3 352.56-15.1 352.56-17.7L352.56-17.7Q352.56-22.05 355.16-24.58 357.76-27.1 362.16-27.1L362.16-27.1Q365.41-27.1 367.53-27.8 369.66-28.5 372.01-29.85L372.01-29.85ZM362.16-23Q360.41-23 359.51-21.75 358.61-20.5 358.61-17.8L358.61-17.8Q358.61-15.25 359.51-13.88 360.41-12.5 362.11-12.5L362.11-12.5Q363.86-12.5 364.71-13.73 365.56-14.95 365.56-17.85L365.56-17.85Q365.56-20.55 364.73-21.78 363.91-23 362.16-23L362.16-23Z" opacity="1" transform="matrix(1,0,0,1,0,0)" fill="#ffffff" class="slogan-text-1" data-fill-palette-color="secondary" id="text-1"></path></svg></g></svg></g></svg></g></svg></g><g transform="matrix(1,0,0,1,158.33841971251968,0)"><svg viewBox="0 0 78.84316057496063 135.89279469584537" height="135.89279469584537" width="78.84316057496063"><g><svg xmlns="http://www.w3.org/2000/svg" xmlns:xlink="http://www.w3.org/1999/xlink" version="1.1" x="0" y="0" viewBox="21.679106830508623 1 56.85827385947761 98" enable-background="new 0 0 100 100" xml:space="preserve" height="135.89279469584537" width="78.84316057496063" class="icon-icon-0" data-fill-palette-color="accent" id="icon-0"><g fill="#6ee2f5" data-fill-palette-color="accent"><path fill-rule="evenodd" clip-rule="evenodd" d="M30.545 28.822c-1.165 7.217 0.33 14.85 6.5 19.041C30.758 19.81 45.756 8.664 59.646 1c-16.18 23.046 16.896 23.644 18.777 50.13C80.028 73.71 64.507 91.317 46.639 99c0.206-22.825-22.55-25.933-24.838-44.603C20.905 47.094 25.062 33.766 30.545 28.822z" fill="#ffffff" data-fill-palette-color="accent"></path></g></svg></g></svg></g><g></g></svg></g><defs></defs><mask id="87e7210b-c05c-4d47-8bc7-6e4768e07143"><g id="SvgjsG1429"><svg viewBox="0 0 395.52 277.21462543938696" height="277.21462543938696" width="395.52"><g><svg viewBox="0 0 395.52 277.21462543938696" height="277.21462543938696" width="395.52"><g transform="matrix(1,0,0,1,0,141.32183074354162)"><svg viewBox="0 0 395.52 135.89279469584537" height="135.89279469584537" width="395.52"><g id="SvgjsG1428"><svg viewBox="0 0 395.52 135.89279469584537" height="135.89279469584537" width="395.52" id="SvgjsSvg1427"><g><svg viewBox="0 0 395.52 87.09769704775805" height="87.09769704775805" width="395.52"><g transform="matrix(1,0,0,1,0,0)"><svg width="395.52" viewBox="2.4623146368139697 -18.889396629956398 209.81581536318606 46.2036566299564" height="87.09769704775805" data-palette-color="url(#b85d114a-28e9-41d4-8b08-378e18d685e4)"><path d="M15.084 17.123v0c-2.428-0.566-4.514-1.573-6.257-3.02-1.737-1.446-3.134-3.161-4.19-5.146-1.057-1.985-1.728-4.11-2.015-6.375-0.293-2.266-0.183-4.499 0.331-6.7v0c0.536-2.298 1.46-4.393 2.77-6.285 1.311-1.892 2.894-3.484 4.749-4.776 1.847-1.287 3.869-2.178 6.066-2.672 2.196-0.494 4.46-0.469 6.79 0.075v0c2.422 0.565 4.503 1.577 6.243 3.037 1.739 1.467 3.123 3.207 4.153 5.22 1.03 2.013 1.693 4.143 1.991 6.39 0.289 2.251 0.181 4.461-0.325 6.629v0c-0.536 2.298-1.45 4.396-2.741 6.292-1.298 1.895-2.871 3.489-4.72 4.783-1.854 1.286-3.877 2.166-6.068 2.64-2.193 0.481-4.452 0.45-6.777-0.092zM16.051 13.2v0c1.844 0.43 3.583 0.428 5.217-0.004 1.636-0.44 3.114-1.187 4.435-2.241 1.321-1.054 2.436-2.328 3.346-3.82 0.909-1.492 1.557-3.063 1.941-4.713v0c0.407-1.746 0.519-3.504 0.336-5.271-0.185-1.761-0.656-3.394-1.414-4.899-0.756-1.511-1.769-2.805-3.037-3.882-1.261-1.081-2.764-1.826-4.511-2.233v0c-1.844-0.43-3.584-0.425-5.22 0.015-1.635 0.433-3.113 1.18-4.435 2.241-1.321 1.054-2.443 2.316-3.368 3.784-0.926 1.475-1.585 3.053-1.977 4.734v0c-0.407 1.746-0.515 3.501-0.324 5.264 0.183 1.768 0.644 3.402 1.382 4.902 0.745 1.502 1.758 2.796 3.038 3.882 1.282 1.079 2.812 1.827 4.591 2.241zM26.779 19.595l-7.027-13.5 4.265 0.995 7.027 13.5zM53.028 23.985v0c-2.8-0.391-5.086-1.205-6.858-2.441-1.766-1.236-3.111-2.763-4.036-4.582-0.917-1.824-1.492-3.826-1.726-6.006-0.229-2.172-0.187-4.378 0.126-6.616v0l2.471-17.709 4.437 0.619-2.471 17.709c-0.239 1.71-0.3 3.401-0.183 5.073 0.116 1.679 0.48 3.214 1.094 4.606 0.607 1.391 1.534 2.56 2.781 3.508 1.242 0.941 2.866 1.551 4.874 1.831v0c2.034 0.284 3.781 0.134 5.243-0.45 1.455-0.585 2.665-1.469 3.631-2.653 0.974-1.19 1.745-2.567 2.313-4.13 0.568-1.563 0.969-3.183 1.204-4.86v0l2.471-17.709 4.447 0.621-2.471 17.708c-0.33 2.364-0.914 4.571-1.753 6.622-0.844 2.043-1.969 3.788-3.375 5.233-1.407 1.446-3.123 2.506-5.149 3.179-2.019 0.674-4.376 0.823-7.07 0.447zM81.199 26.722l-4.477-0.339 2.67-35.259 4.477 0.339zM87.832 26.959l0.044-3.49 23.162-27.598-22.358-0.284 0.05-3.98 27.588 0.35-0.044 3.48-22.762 27.614 22.408 0.284-0.05 3.979zM120.285 27.066l-0.235-3.482 20.883-29.361-22.309 1.504-0.268-3.971 27.527-1.855 0.234 3.472-20.483 29.344 22.36-1.507 0.267 3.971zM159.072 19.648l19.323-2.765 0.564 3.94-23.768 3.401-5.01-35.003 23.323-3.338 0.564 3.94-18.878 2.702 1.624 11.344 16.412-2.349 0.529 3.692-16.413 2.349zM190.324 18.208l-4.379 0.992-7.808-34.488 14.766-3.343c1.521-0.344 2.988-0.345 4.398-0.001 1.404 0.345 2.694 0.938 3.869 1.78 1.181 0.84 2.181 1.858 2.998 3.053 0.81 1.191 1.368 2.465 1.676 3.824v0c0.359 1.587 0.402 3.163 0.127 4.729-0.276 1.559-0.843 2.963-1.702 4.21-0.858 1.254-1.971 2.237-3.341 2.95v0l11.35 11.324-4.954 1.121-10.676-10.604-9.129 2.067zM183.395-12.397l3.246 14.337 10.435-2.363c1.203-0.272 2.174-0.844 2.914-1.715 0.741-0.865 1.237-1.903 1.488-3.116 0.252-1.212 0.234-2.452-0.053-3.72v0c-0.293-1.294-0.855-2.418-1.685-3.371-0.823-0.948-1.78-1.641-2.87-2.078-1.084-0.438-2.191-0.529-3.322-0.273v0z" opacity="1" transform="matrix(1,0,0,1,0,0)" fill="white" class="wordmark-text-0" id="SvgjsPath1426"></path></svg></g></svg></g><g transform="matrix(1,0,0,1,118.31980799999998,114.24287728623932)"><svg viewBox="0 0 158.88038400000002 21.649917409606047" height="21.649917409606047" width="158.88038400000002"><g transform="matrix(1,0,0,1,0,0)"><svg width="158.88038400000002" viewBox="3 -39.65 370.56 50.5" height="21.649917409606047" data-palette-color="#6ee2f5"><path d="M24.6-34.55L24.6 0 16.5 0 7.75-28.3Q8.15-24.7 8.38-21.68 8.6-18.65 8.6-14.5L8.6-14.5 8.6 0 3 0 3-34.55 11.05-34.55 19.8-6.25Q19.5-8.05 19.23-11.35 18.95-14.65 18.95-18.05L18.95-18.05 18.95-34.55 24.6-34.55ZM49.3-13.85Q49.3-13.4 49.15-11.3L49.15-11.3 35.5-11.3Q35.7-7.2 36.92-5.58 38.15-3.95 40.4-3.95L40.4-3.95Q41.95-3.95 43.2-4.48 44.45-5 45.9-6.15L45.9-6.15 48.45-2.65Q44.95 0.75 40.05 0.75L40.05 0.75Q34.85 0.75 32.07-2.85 29.3-6.45 29.3-13L29.3-13Q29.3-19.55 31.95-23.35 34.6-27.15 39.45-27.15L39.45-27.15Q44.1-27.15 46.7-23.78 49.3-20.4 49.3-13.85L49.3-13.85ZM43.3-15.3L43.3-15.65Q43.3-19.4 42.4-21.13 41.5-22.85 39.5-22.85L39.5-22.85Q37.65-22.85 36.67-21.18 35.7-19.5 35.5-15.3L35.5-15.3 43.3-15.3ZM66-26.45L72.05-26.45 65.15 0 57.9 0 50.8-26.45 57.15-26.45 61.5-4.95 66-26.45ZM93.79-13.85Q93.79-13.4 93.64-11.3L93.64-11.3 79.99-11.3Q80.19-7.2 81.42-5.58 82.64-3.95 84.89-3.95L84.89-3.95Q86.44-3.95 87.69-4.48 88.94-5 90.39-6.15L90.39-6.15 92.94-2.65Q89.44 0.75 84.54 0.75L84.54 0.75Q79.34 0.75 76.57-2.85 73.79-6.45 73.79-13L73.79-13Q73.79-19.55 76.44-23.35 79.09-27.15 83.94-27.15L83.94-27.15Q88.59-27.15 91.19-23.78 93.79-20.4 93.79-13.85L93.79-13.85ZM87.79-15.3L87.79-15.65Q87.79-19.4 86.89-21.13 85.99-22.85 83.99-22.85L83.99-22.85Q82.14-22.85 81.17-21.18 80.19-19.5 79.99-15.3L79.99-15.3 87.79-15.3ZM109.74-27.1Q110.89-27.1 111.79-26.75L111.79-26.75 110.79-20.85Q109.79-21.1 108.94-21.1L108.94-21.1Q107.04-21.1 105.94-19.45 104.84-17.8 104.24-14.55L104.24-14.55 104.24 0 98.09 0 98.09-26.45 103.44-26.45 103.89-21.85Q105.74-27.1 109.74-27.1L109.74-27.1ZM131.84-27.15Q136.54-27.15 139.79-24.05L139.79-24.05 137.44-20.7Q136.04-21.7 134.79-22.2 133.54-22.7 132.24-22.7L132.24-22.7Q130.79-22.7 129.96-21.93 129.14-21.15 129.14-19.8L129.14-19.8Q129.14-18.45 130.06-17.63 130.99-16.8 133.79-15.7L133.79-15.7Q137.24-14.35 138.89-12.5 140.54-10.65 140.54-7.55L140.54-7.55Q140.54-3.7 137.84-1.48 135.14 0.75 130.99 0.75L130.99 0.75Q128.29 0.75 126.01-0.23 123.74-1.2 122.04-2.95L122.04-2.95 125.04-6.25Q127.84-3.8 130.74-3.8L130.74-3.8Q132.39-3.8 133.34-4.67 134.29-5.55 134.29-7.1L134.29-7.1Q134.29-8.25 133.89-8.97 133.49-9.7 132.49-10.33 131.49-10.95 129.49-11.7L129.49-11.7Q126.04-13.05 124.56-14.85 123.09-16.65 123.09-19.45L123.09-19.45Q123.09-22.8 125.46-24.98 127.84-27.15 131.84-27.15L131.84-27.15ZM155.53-5L157.68-1.2Q155.23 0.75 151.93 0.75L151.93 0.75Q148.48 0.75 146.68-1.23 144.88-3.2 144.88-6.6L144.88-6.6 144.88-22 141.78-22 141.78-26.45 144.88-26.45 144.88-32.3 151.03-33.05 151.03-26.45 156.03-26.45 155.43-22 151.03-22 151.03-6.6Q151.03-4.2 153.08-4.2L153.08-4.2Q153.73-4.2 154.23-4.38 154.73-4.55 155.53-5L155.53-5ZM169.63-27.15Q174.63-27.15 177.41-23.65 180.18-20.15 180.18-13.25L180.18-13.25Q180.18-6.65 177.38-2.95 174.58 0.75 169.63 0.75L169.63 0.75Q164.68 0.75 161.88-2.88 159.08-6.5 159.08-13.25L159.08-13.25Q159.08-19.95 161.88-23.55 164.68-27.15 169.63-27.15L169.63-27.15ZM169.63-22.5Q167.48-22.5 166.48-20.38 165.48-18.25 165.48-13.25L165.48-13.25Q165.48-8.2 166.48-6.08 167.48-3.95 169.63-3.95L169.63-3.95Q171.78-3.95 172.78-6.08 173.78-8.2 173.78-13.25L173.78-13.25Q173.78-18.3 172.78-20.4 171.78-22.5 169.63-22.5L169.63-22.5ZM196.93-27.15Q200.83-27.15 202.83-23.58 204.83-20 204.83-13.3L204.83-13.3Q204.83-6.8 202.55-3.03 200.28 0.75 196.23 0.75L196.23 0.75Q193.03 0.75 190.88-2.1L190.88-2.1 190.88 10.15 184.73 10.85 184.73-26.45 190.18-26.45 190.43-23.25Q191.73-25.25 193.33-26.2 194.93-27.15 196.93-27.15L196.93-27.15ZM194.58-3.95Q196.48-3.95 197.48-6.13 198.48-8.3 198.48-13.25L198.48-13.25Q198.48-18.45 197.63-20.5 196.78-22.55 194.98-22.55L194.98-22.55Q192.68-22.55 190.88-19.25L190.88-19.25 190.88-6.45Q192.48-3.95 194.58-3.95L194.58-3.95ZM224.87 0.75Q222.17 0.75 220.6-0.93 219.02-2.6 219.02-5.4L219.02-5.4 219.02-37.05 225.17-37.7 225.17-5.65Q225.17-5 225.47-4.6 225.77-4.2 226.37-4.2L226.37-4.2Q226.72-4.2 227.05-4.3 227.37-4.4 227.47-4.4L227.47-4.4 228.67-0.2Q226.97 0.75 224.87 0.75L224.87 0.75ZM250.57-13.85Q250.57-13.4 250.42-11.3L250.42-11.3 236.77-11.3Q236.97-7.2 238.2-5.58 239.42-3.95 241.67-3.95L241.67-3.95Q243.22-3.95 244.47-4.48 245.72-5 247.17-6.15L247.17-6.15 249.72-2.65Q246.22 0.75 241.32 0.75L241.32 0.75Q236.12 0.75 233.35-2.85 230.57-6.45 230.57-13L230.57-13Q230.57-19.55 233.22-23.35 235.87-27.15 240.72-27.15L240.72-27.15Q245.37-27.15 247.97-23.78 250.57-20.4 250.57-13.85L250.57-13.85ZM244.57-15.3L244.57-15.65Q244.57-19.4 243.67-21.13 242.77-22.85 240.77-22.85L240.77-22.85Q238.92-22.85 237.95-21.18 236.97-19.5 236.77-15.3L236.77-15.3 244.57-15.3ZM271.77-6.4Q271.77-5.1 272.12-4.48 272.47-3.85 273.27-3.45L273.27-3.45 272.02 0.65Q269.97 0.4 268.74-0.45 267.52-1.3 266.92-3.05L266.92-3.05Q264.62 0.75 260.47 0.75L260.47 0.75Q257.17 0.75 255.22-1.48 253.27-3.7 253.27-7.4L253.27-7.4Q253.27-11.7 255.94-13.95 258.62-16.2 263.72-16.2L263.72-16.2 265.77-16.2 265.77-18.05Q265.77-20.55 264.89-21.58 264.02-22.6 262.07-22.6L262.07-22.6Q259.72-22.6 256.22-21.3L256.22-21.3 254.82-25.3Q256.82-26.2 258.97-26.68 261.12-27.15 263.07-27.15L263.07-27.15Q271.77-27.15 271.77-18.35L271.77-18.35 271.77-6.4ZM262.12-3.7Q264.52-3.7 265.77-7L265.77-7 265.77-12.55 264.32-12.55Q261.77-12.55 260.59-11.4 259.42-10.25 259.42-7.85L259.42-7.85Q259.42-5.8 260.12-4.75 260.82-3.7 262.12-3.7L262.12-3.7ZM289.22-27.1Q290.37-27.1 291.27-26.75L291.27-26.75 290.27-20.85Q289.27-21.1 288.42-21.1L288.42-21.1Q286.52-21.1 285.42-19.45 284.32-17.8 283.72-14.55L283.72-14.55 283.72 0 277.57 0 277.57-26.45 282.92-26.45 283.37-21.85Q285.22-27.1 289.22-27.1L289.22-27.1ZM306.46-27.15Q309.31-27.15 310.96-25.1 312.61-23.05 312.61-19.6L312.61-19.6 312.61 0 306.46 0 306.46-18.9Q306.46-20.8 305.94-21.63 305.41-22.45 304.41-22.45L304.41-22.45Q302.31-22.45 300.26-18.5L300.26-18.5 300.26 0 294.11 0 294.11-26.45 299.46-26.45 299.91-23Q301.26-25.1 302.79-26.13 304.31-27.15 306.46-27.15L306.46-27.15ZM318.16-26.45L324.31-26.45 324.31 0 318.16 0 318.16-26.45ZM321.21-39.65Q322.86-39.65 323.89-38.6 324.91-37.55 324.91-35.9L324.91-35.9Q324.91-34.3 323.89-33.25 322.86-32.2 321.21-32.2L321.21-32.2Q319.56-32.2 318.54-33.25 317.51-34.3 317.51-35.9L317.51-35.9Q317.51-37.55 318.54-38.6 319.56-39.65 321.21-39.65L321.21-39.65ZM342.36-27.15Q345.21-27.15 346.86-25.1 348.51-23.05 348.51-19.6L348.51-19.6 348.51 0 342.36 0 342.36-18.9Q342.36-20.8 341.83-21.63 341.31-22.45 340.31-22.45L340.31-22.45Q338.21-22.45 336.16-18.5L336.16-18.5 336.16 0 330.01 0 330.01-26.45 335.36-26.45 335.81-23Q337.16-25.1 338.68-26.13 340.21-27.15 342.36-27.15L342.36-27.15ZM372.01-29.85L373.56-25.1Q372.51-24.6 371.03-24.4 369.56-24.2 367.36-24.2L367.36-24.2Q369.46-23.2 370.48-21.53 371.51-19.85 371.51-17.4L371.51-17.4Q371.51-13.4 369.06-10.95 366.61-8.5 362.41-8.5L362.41-8.5Q361.16-8.5 359.86-8.9L359.86-8.9Q358.96-8.15 358.96-6.85L358.96-6.85Q358.96-5.85 359.51-5.35 360.06-4.85 361.56-4.85L361.56-4.85 364.36-4.85Q368.36-4.85 370.71-2.78 373.06-0.7 373.06 2.5L373.06 2.5Q373.06 6.3 370.13 8.58 367.21 10.85 361.81 10.85L361.81 10.85Q356.11 10.85 353.83 8.75 351.56 6.65 351.56 2.6L351.56 2.6 357.01 2.6Q357.01 4.75 358.01 5.65 359.01 6.55 361.86 6.55L361.86 6.55Q364.61 6.55 365.76 5.6 366.91 4.65 366.91 2.9L366.91 2.9Q366.91 1.2 365.96 0.4 365.01-0.4 363.01-0.4L363.01-0.4 361.11-0.4Q357.31-0.4 355.56-1.75 353.81-3.1 353.81-5.45L353.81-5.45Q353.81-6.8 354.53-8.03 355.26-9.25 356.51-10.2L356.51-10.2Q354.46-11.5 353.51-13.3 352.56-15.1 352.56-17.7L352.56-17.7Q352.56-22.05 355.16-24.58 357.76-27.1 362.16-27.1L362.16-27.1Q365.41-27.1 367.53-27.8 369.66-28.5 372.01-29.85L372.01-29.85ZM362.16-23Q360.41-23 359.51-21.75 358.61-20.5 358.61-17.8L358.61-17.8Q358.61-15.25 359.51-13.88 360.41-12.5 362.11-12.5L362.11-12.5Q363.86-12.5 364.71-13.73 365.56-14.95 365.56-17.85L365.56-17.85Q365.56-20.55 364.73-21.78 363.91-23 362.16-23L362.16-23Z" opacity="1" transform="matrix(1,0,0,1,0,0)" fill="black" class="slogan-text-1" id="SvgjsPath1425"></path></svg></g></svg></g></svg></g></svg></g><g transform="matrix(1,0,0,1,158.33841971251968,0)"><svg viewBox="0 0 78.84316057496063 135.89279469584537" height="135.89279469584537" width="78.84316057496063"><g><svg xmlns="http://www.w3.org/2000/svg" xmlns:xlink="http://www.w3.org/1999/xlink" version="1.1" x="0" y="0" viewBox="21.679106830508623 1 56.85827385947761 98" enable-background="new 0 0 100 100" xml:space="preserve" height="135.89279469584537" width="78.84316057496063" class="icon-icon-0" data-fill-palette-color="accent" id="SvgjsSvg1424"><g fill="black"><path fill-rule="evenodd" clip-rule="evenodd" d="M30.545 28.822c-1.165 7.217 0.33 14.85 6.5 19.041C30.758 19.81 45.756 8.664 59.646 1c-16.18 23.046 16.896 23.644 18.777 50.13C80.028 73.71 64.507 91.317 46.639 99c0.206-22.825-22.55-25.933-24.838-44.603C20.905 47.094 25.062 33.766 30.545 28.822z" fill="black"></path></g></svg></g></svg></g><g></g></svg></g><defs><mask></mask></defs></svg><rect width="395.52" height="277.21462543938696" fill="black" stroke="none" visibility="hidden"></rect></g></mask><linearGradient x1="0" x2="1" y1="0.578" y2="0.595" id="b85d114a-28e9-41d4-8b08-378e18d685e4"><stop stop-color="#6ee2f5" offset="0"></stop><stop stop-color="#6454f0" offset="1"></stop></linearGradient><rect width="395.52" height="277.21462543938696" fill="#ffffff" mask="url(#87e7210b-c05c-4d47-8bc7-6e4768e07143)" data-fill-palette-color="primary"></rect></svg><rect width="395.52" height="277.21462543938696" fill="none" stroke="none" visibility="hidden"></rect></g></svg></g></svg>